# xmcd
#
# Track frame offsets:
# 150
# 16452
# 35036
# 54099
# 69064
# 86301
# 102086
# 116061
# 140882
# 157539
# 168107
# 192006
#
# Disc length: 2755 seconds
#
# Revision: 0
# Processed by: cddbd v1.4PL0 Copyright (c) Steve Scherf et al.
# Submitted via: Axialis_AX_CDPlayer 2.6
#
DISCID=880ac10c
DTITLE=Kedron Taylor - Every Place I Go
DYEAR=1900
DGENRE=
TTITLE0=I Love It Here
TTITLE1=A Long Way Home
TTITLE2=The Old Holden Waltz
TTITLE3=Biggest Disappointment
TTITLE4=The Girl In The Dancehall Corner
TTITLE5=Beauty's In The Eye of the Beholder
TTITLE6=Two Solid Weeks Of Rain
TTITLE7=Tears of a Country Dad
TTITLE8=All Australian Man
TTITLE9=Inner City Suburbs 4 W.D. Association
TTITLE10=We've Got Today
TTITLE11=Don't It Make You Wanna Go Home
EXTD=
EXTT0=
EXTT1=
EXTT2=
EXTT3=
EXTT4=
EXTT5=
EXTT6=
EXTT7=
EXTT8=
EXTT9=
EXTT10=
EXTT11=
PLAYORDER=
